<svg width="80" height="80" viewBox="0 0 80 80" fill="none" xmlns="http://www.w3.org/2000/svg">
<path d="M69.7785 0H7.12025C3.19415 0 0 3.15422 0 7.03125V68.9062C0 72.7833 3.19415 75.9375 7.12025 75.9375H53.9557C54.5853 75.9375 55.1889 75.6905 55.6339 75.2509L76.2035 54.9384C76.6487 54.4989 76.8987 53.9028 76.8987 53.2812V7.03125C76.8987 3.15422 73.7046 0 69.7785 0Z" fill="#8D9A9F"/>
<path d="M38.4494 0H7.12025C3.19415 0 0 3.15422 0 7.03125V37.9688H38.4494V0Z" fill="#8D9A9F"/>
<path d="M76.8986 37.9688V7.03125C76.8986 3.15422 73.7044 0 69.7783 0H38.4492V37.9688H76.8986Z" fill="#4F4F4F"/>
<path d="M38.4492 37.9688V75.9375H53.9555C54.5851 75.9375 55.1888 75.6905 55.6337 75.2509L76.2033 54.9384C76.6486 54.4989 76.8986 53.9028 76.8986 53.2812V37.9688H38.4492ZM74.5252 53.2812H74.5268H74.5252Z" fill="#333333"/>
<path d="M0 37.9688V68.9062C0 72.7833 3.19415 75.9375 7.12025 75.9375H38.4494V37.9688H0Z" fill="#4F4F4F"/>
<path d="M24.7619 16.6406H21.5973V13.5156C21.5973 12.2212 20.5347 11.1719 19.2239 11.1719C17.9131 11.1719 16.8505 12.2212 16.8505 13.5156V16.6406H13.6859C12.3752 16.6406 11.3125 17.69 11.3125 18.9844C11.3125 20.2788 12.3752 21.3281 13.6859 21.3281H16.8505V24.4531C16.8505 25.7475 17.9131 26.7969 19.2239 26.7969C20.5347 26.7969 21.5973 25.7475 21.5973 24.4531V21.3281H24.7619C26.0726 21.3281 27.1353 20.2788 27.1353 18.9844C27.1353 17.69 26.0726 16.6406 24.7619 16.6406Z" fill="#DCF5FA"/>
<path d="M63.2111 21.3281H52.1351C50.8244 21.3281 49.7617 20.2787 49.7617 18.9844C49.7617 17.69 50.8244 16.6406 52.1351 16.6406H63.2111C64.5218 16.6406 65.5845 17.69 65.5845 18.9844C65.5845 20.2787 64.5218 21.3281 63.2111 21.3281Z" fill="#BEDCE6"/>
<path d="M22.5802 56.9532L24.8577 54.7041C25.7846 53.7888 25.7846 52.3049 24.8577 51.3896C23.931 50.4743 22.4282 50.4743 21.5013 51.3896L19.2237 53.6387L16.9462 51.3896C16.0195 50.4743 14.5166 50.4743 13.5897 51.3896C12.6628 52.3049 12.6628 53.7888 13.5897 54.7041L15.8672 56.9532L13.5897 59.2023C12.6628 60.1176 12.6628 61.6015 13.5897 62.5168C14.0532 62.9744 14.6606 63.2034 15.2679 63.2034C15.8751 63.2034 16.4827 62.9746 16.946 62.5168L19.2236 60.2677L21.5011 62.5168C21.9645 62.9744 22.572 63.2034 23.1793 63.2034C23.7865 63.2034 24.3941 62.9746 24.8574 62.5168C25.7843 61.6015 25.7843 60.1176 24.8574 59.2023L22.5802 56.9532Z" fill="#DCF5FA"/>
<path d="M61.2654 80C50.9353 80 42.5312 71.7009 42.5312 61.5C42.5312 51.2991 50.9353 43 61.2654 43C71.5956 43 79.9996 51.2991 79.9996 61.5C79.9996 71.7009 71.5956 80 61.2654 80Z" fill="#00B289"/>
<path d="M65.3247 66.7158H56.7641C55.751 66.7158 54.9297 65.9047 54.9297 64.9043C54.9297 63.9038 55.751 63.0928 56.7641 63.0928H65.3247C66.3378 63.0928 67.1592 63.9038 67.1592 64.9043C67.1592 65.9047 66.3378 66.7158 65.3247 66.7158Z" fill="#BEDCE6"/>
<path d="M65.3247 59.4697H56.7641C55.751 59.4697 54.9297 58.6586 54.9297 57.6582C54.9297 56.6577 55.751 55.8467 56.7641 55.8467H65.3247C66.3378 55.8467 67.1592 56.6577 67.1592 57.6582C67.1592 58.6586 66.3378 59.4697 65.3247 59.4697Z" fill="#BEDCE6"/>
</svg>
