<svg width="80" height="80" viewBox="0 0 80 80" fill="none" xmlns="http://www.w3.org/2000/svg">
<path d="M14.5642 79.5542C9.38651 79.5542 5.18917 75.3569 5.18917 70.1792V60.8042H1.3026C0.775728 60.8042 0.300728 60.4869 0.0991653 60.0002C-0.102397 59.5134 0.00900902 58.9531 0.381509 58.5806L8.95557 50.0066C9.46432 49.4978 10.289 49.4978 10.7976 50.0066L19.3717 58.5806C19.7442 58.9531 19.8556 59.5134 19.654 60.0002C19.4524 60.4869 18.9774 60.8042 18.4506 60.8042H14.5642V70.1792H21.5954C22.8898 70.1792 23.9392 71.2286 23.9392 72.523V77.2105C23.9392 78.5049 22.8898 79.5542 21.5954 79.5542H14.5642Z" fill="#4F4F4F"/>
<path d="M60.6279 30.1069C60.2554 29.7344 60.144 29.1741 60.3456 28.6874C60.5471 28.2006 61.0221 27.8833 61.549 27.8833H65.4356V18.5083H58.4043C57.1099 18.5083 56.0605 17.4589 56.0605 16.1646V11.4771C56.0605 10.1827 57.1099 9.1333 58.4043 9.1333H65.4356C70.6132 9.1333 74.8106 13.3306 74.8106 18.5083V27.8833H78.6971C79.224 27.8833 79.6988 28.2006 79.9006 28.6874C80.1021 29.1741 79.9907 29.7344 79.6182 30.1069L71.0441 38.681C70.5354 39.1897 69.7107 39.1897 69.2021 38.681L60.6279 30.1069Z" fill="#4F4F4F"/>
<rect x="34" y="52" width="46" height="28" rx="5" fill="#00B289"/>
<rect x="3" width="45" height="48" rx="5" fill="#BEDCE6"/>
<path fill-rule="evenodd" clip-rule="evenodd" d="M39.2252 40.6996C38.8347 41.0901 38.2015 41.0901 37.811 40.6996L36.589 39.4776C36.1984 39.0871 35.5653 39.0871 35.1748 39.4776L34.7071 39.9452C34.3166 40.3358 34.3166 40.9689 34.7071 41.3594L37.811 44.4633C38.2015 44.8539 38.8347 44.8539 39.2252 44.4633L44.4633 39.2252C44.8539 38.8347 44.8539 38.2015 44.4633 37.811L43.9957 37.3433C43.6052 36.9528 42.972 36.9528 42.5815 37.3433L39.2252 40.6996Z" fill="#00B289"/>
<circle cx="57" cy="66" r="7" fill="#BEDCE6"/>
<rect x="7" y="6" width="37" height="4" rx="2" fill="#8D9A9F"/>
<rect x="7" y="13" width="37" height="4" rx="2" fill="#8D9A9F"/>
<rect x="7" y="20" width="37" height="4" rx="2" fill="#8D9A9F"/>
<rect x="7" y="27" width="37" height="4" rx="2" fill="#8D9A9F"/>
</svg>
