<svg width="24" height="24" viewBox="0 0 24 24" fill="none" xmlns="http://www.w3.org/2000/svg">
<path fill-rule="evenodd" clip-rule="evenodd" d="M11.5123 0.00351715H11.509H11.5058C11.2123 0.00338745 10.9401 0.00326538 10.687 0.00366211V0C7.95883 0.00305176 7.43552 0.021347 6.08516 0.0823517C4.65795 0.147926 3.88305 0.385826 3.36706 0.58712C2.68395 0.853081 2.19601 1.17028 1.68368 1.68268C1.17135 2.19507 0.853581 2.68307 0.588267 3.36626C0.387908 3.88232 0.14943 4.65702 0.0841688 6.08441C0.0140281 7.6277 0 8.08885 0 11.9983C0 15.9078 0.0140281 16.3714 0.0841688 17.9147C0.149125 19.3421 0.387908 20.1168 0.588267 20.6322C0.854191 21.3157 1.17135 21.8025 1.68368 22.3149C2.19601 22.8273 2.68395 23.1445 3.36706 23.4098C3.88335 23.6102 4.65795 23.8487 6.08516 23.9146C7.62826 23.9847 8.09149 24 12.0002 24C15.9085 24 16.3721 23.9847 17.9151 23.9146C19.3424 23.8493 20.1176 23.6114 20.6329 23.4101C21.3164 23.1448 21.8028 22.8276 22.3151 22.3152C22.8274 21.8031 23.1452 21.3166 23.4105 20.6334C23.6109 20.118 23.8494 19.3433 23.9146 17.9159C23.9848 16.3726 24 15.909 24 12.002C24 8.09496 23.9848 7.63136 23.9146 6.08807C23.8497 4.66068 23.6109 3.88598 23.4105 3.37054C23.1446 2.68734 22.8274 2.19934 22.3151 1.68694C21.8031 1.17455 21.3161 0.857353 20.6329 0.592003C20.117 0.391617 19.3424 0.153107 17.9151 0.0878372C16.3717 0.0176926 15.9085 0.00366211 12.0002 0.00366211L11.5123 0.00351715ZM16.8794 12.005C16.8794 9.3097 14.6947 7.125 12.0001 7.125C9.30515 7.125 7.12073 9.3097 7.12073 12.005C7.12073 14.6999 9.30515 16.8849 12.0001 16.8849C14.6947 16.8849 16.8794 14.6999 16.8794 12.005ZM19.813 2.43518C18.8433 2.43518 18.0565 3.22116 18.0565 4.19136C18.0565 5.16125 18.8433 5.94815 19.813 5.94815C20.7828 5.94815 21.5696 5.16125 21.5696 4.19136C21.5696 3.22147 20.7828 2.43457 19.813 2.43457V2.43518ZM4.48294 12.0055C4.48294 7.85367 7.84858 4.48746 11.9998 4.4873C16.1512 4.4873 19.5161 7.85357 19.5161 12.0055C19.5161 16.1575 16.1515 19.5222 12.0001 19.5222C7.84875 19.5222 4.48294 16.1575 4.48294 12.0055Z" fill="#BB6BD9"/>
</svg>
