<svg width="48" height="48" viewBox="0 0 48 48" fill="none" xmlns="http://www.w3.org/2000/svg">
<circle cx="24" cy="24" r="24" fill="#00B289"/>
<circle cx="23.5" cy="23.5" r="18.5" fill="white"/>
<circle cx="23.5" cy="23.5" r="18.5" fill="white"/>
<rect x="25" y="20" width="9" height="15" rx="1" fill="#464359"/>
<rect x="14" y="13" width="13" height="22" rx="1" fill="#8D9A9F"/>
<path d="M18 18H16C15.448 18 15 17.552 15 17C15 16.448 15.448 16 16 16H18C18.552 16 19 16.448 19 17C19 17.552 18.552 18 18 18Z" fill="white"/>
<path d="M25 28H23C22.448 28 22 27.552 22 27C22 26.448 22.448 26 23 26H25C25.552 26 26 26.448 26 27C26 27.552 25.552 28 25 28Z" fill="white"/>
<path d="M18 28H16C15.448 28 15 27.552 15 27C15 26.448 15.448 26 16 26H18C18.552 26 19 26.448 19 27C19 27.552 18.552 28 18 28Z" fill="white"/>
<path d="M25 23H23C22.448 23 22 22.552 22 22C22 21.448 22.448 21 23 21H25C25.552 21 26 21.448 26 22C26 22.552 25.552 23 25 23Z" fill="white"/>
<path d="M18 23H16C15.448 23 15 22.552 15 22C15 21.448 15.448 21 16 21H18C18.552 21 19 21.448 19 22C19 22.552 18.552 23 18 23Z" fill="white"/>
<path d="M25 18H23C22.448 18 22 17.552 22 17C22 16.448 22.448 16 23 16H25C25.552 16 26 16.448 26 17C26 17.552 25.552 18 25 18Z" fill="white"/>
</svg>
