<svg width="72" height="72" viewBox="0 0 72 72" fill="none" xmlns="http://www.w3.org/2000/svg">
<path d="M72 36C72 55.8823 55.8823 72 36 72C16.1177 72 0 55.8823 0 36C0 16.1177 16.1177 0 36 0C55.8823 0 72 16.1177 72 36Z" fill="#00B289"/>
<path d="M63 35C63 50.464 50.6878 63 35.5 63C20.3122 63 8 50.464 8 35C8 19.536 20.3122 7 35.5 7C50.6878 7 63 19.536 63 35Z" fill="#00B289"/>
<path d="M63 35C63 50.464 50.6878 63 35.5 63C20.3122 63 8 50.464 8 35C8 19.536 20.3122 7 35.5 7C50.6878 7 63 19.536 63 35Z" fill="#00B289"/>
<path d="M38 31.4667C38 30.6566 38.6467 30 39.4444 30H49.5556C50.3533 30 51 30.6566 51 31.4667V50.5333C51 51.3434 50.3533 52 49.5556 52H39.4444C38.6467 52 38 51.3434 38 50.5333V31.4667Z" fill="#464359"/>
<path d="M21 20.5C21 19.6716 21.6888 19 22.5385 19H39.4615C40.3112 19 41 19.6716 41 20.5V50.5C41 51.3284 40.3112 52 39.4615 52H22.5385C21.6888 52 21 51.3284 21 50.5V20.5Z" fill="white"/>
<path d="M27.5 27H24.5C23.672 27 23 26.328 23 25.5C23 24.672 23.672 24 24.5 24H27.5C28.328 24 29 24.672 29 25.5C29 26.328 28.328 27 27.5 27Z" fill="#00B289"/>
<path d="M37.5 42H34.5C33.672 42 33 41.328 33 40.5C33 39.672 33.672 39 34.5 39H37.5C38.328 39 39 39.672 39 40.5C39 41.328 38.328 42 37.5 42Z" fill="#00B289"/>
<path d="M27.5 42H24.5C23.672 42 23 41.328 23 40.5C23 39.672 23.672 39 24.5 39H27.5C28.328 39 29 39.672 29 40.5C29 41.328 28.328 42 27.5 42Z" fill="#00B289"/>
<path d="M37.5 34H34.5C33.672 34 33 33.328 33 32.5C33 31.672 33.672 31 34.5 31H37.5C38.328 31 39 31.672 39 32.5C39 33.328 38.328 34 37.5 34Z" fill="#00B289"/>
<path d="M27.5 34H24.5C23.672 34 23 33.328 23 32.5C23 31.672 23.672 31 24.5 31H27.5C28.328 31 29 31.672 29 32.5C29 33.328 28.328 34 27.5 34Z" fill="#00B289"/>
<path d="M37.5 27H34.5C33.672 27 33 26.328 33 25.5C33 24.672 33.672 24 34.5 24H37.5C38.328 24 39 24.672 39 25.5C39 26.328 38.328 27 37.5 27Z" fill="#00B289"/>
</svg>
