<svg width="80" height="80" viewBox="0 0 80 80" fill="none" xmlns="http://www.w3.org/2000/svg">
<g clip-path="url(#clip0)">
<path d="M67.7129 3.42383H59.7676C58.663 3.42383 57.7676 4.31926 57.7676 5.42383V21.0834C57.7676 22.1879 58.663 23.0834 59.7676 23.0834H67.7129C68.8175 23.0834 69.7129 22.1879 69.7129 21.0834V5.42383C69.7129 4.31926 68.8175 3.42383 67.7129 3.42383Z" fill="#4F4F4F"/>
<path d="M72.103 30.5377V75.2871C72.103 77.391 70.3974 79.0966 68.2935 79.0966H11.7043C9.60039 79.0966 7.89648 77.391 7.89648 75.2871V30.5377L8.43742 28.9416L8.98992 27.3139L39.5999 4.41895L57.0212 18.4191L72.103 30.5377Z" fill="#8D9A9F"/>
<path d="M72.103 30.5378V37.528L39.9998 14.2911L7.89648 37.5263V30.5378L8.43742 28.9418L38.0535 7.50691C39.2149 6.66566 40.7845 6.66566 41.9443 7.50691L57.0212 18.4193L72.103 30.5378Z" fill="#4F4F4F"/>
<path d="M76.6786 34.0895C76.0044 34.0895 75.3239 33.8848 74.7356 33.4591L40 8.31781L5.26424 33.4591C3.77955 34.5337 1.70518 34.2012 0.630488 32.7166C-0.444043 31.2319 -0.1117 29.1573 1.37299 28.0828L38.0542 1.53344C39.2153 0.693281 40.7847 0.693281 41.9455 1.53344L78.6271 28.0828C80.1117 29.1575 80.4441 31.2319 79.3696 32.7166C78.7206 33.6131 77.7067 34.0895 76.6786 34.0895Z" fill="#00B289"/>
<path d="M35.916 58.7867C35.6096 59.3053 35.2442 59.6943 34.8199 59.9536C34.4192 60.2129 34.0066 60.3425 33.5823 60.3425C33.0166 60.3425 32.5215 60.1304 32.0972 59.7061C31.6729 59.2818 31.4608 58.7632 31.4608 58.1503C31.4608 57.6081 31.6258 57.0541 31.9558 56.4884L44.084 35.5558C44.3904 35.0372 44.744 34.6483 45.1448 34.3889C45.5691 34.1297 45.9934 34 46.4177 34C47.007 34 47.502 34.2122 47.9028 34.6365C48.3271 35.0372 48.5392 35.5558 48.5392 36.1923C48.5392 36.7344 48.3742 37.2884 48.0442 37.8541L35.916 58.7867ZM30.6475 49.5227C28.5731 49.5227 26.9466 48.8626 25.768 47.5425C24.5893 46.2225 24 44.3249 24 41.8497C24 39.4217 24.5893 37.5595 25.768 36.263C26.9466 34.9429 28.5731 34.2829 30.6475 34.2829C32.7219 34.2829 34.3484 34.9429 35.5271 36.263C36.7057 37.5595 37.295 39.4335 37.295 41.8851C37.295 44.3602 36.7057 46.2578 35.5271 47.5779C34.3484 48.8744 32.7219 49.5227 30.6475 49.5227ZM30.6475 45.7039C31.1897 45.7039 31.5786 45.421 31.8144 44.8552C32.0737 44.2659 32.2033 43.2759 32.2033 41.8851C32.2033 40.5414 32.0737 39.5867 31.8144 39.021C31.5551 38.4317 31.1661 38.137 30.6475 38.137C30.1053 38.137 29.7046 38.4317 29.4453 39.021C29.2096 39.5867 29.0917 40.5414 29.0917 41.8851C29.0917 43.2759 29.2096 44.2659 29.4453 44.8552C29.7046 45.421 30.1053 45.7039 30.6475 45.7039ZM49.3525 59.8829C47.2781 59.8829 45.6516 59.2228 44.4729 57.9028C43.2943 56.5827 42.705 54.6851 42.705 52.2099C42.705 49.782 43.2943 47.9197 44.4729 46.6232C45.6516 45.3031 47.2781 44.6431 49.3525 44.6431C51.4269 44.6431 53.0534 45.3031 54.232 46.6232C55.4107 47.9197 56 49.7937 56 52.2453C56 54.7204 55.4107 56.618 54.232 57.9381C53.0534 59.2346 51.4269 59.8829 49.3525 59.8829ZM49.3525 56.0641C49.8947 56.0641 50.2836 55.7812 50.5193 55.2155C50.7786 54.6262 50.9083 53.6361 50.9083 52.2453C50.9083 50.9017 50.7786 49.9352 50.5193 49.3459C50.26 48.7565 49.8711 48.4619 49.3525 48.4619C48.8103 48.4619 48.4096 48.7565 48.1503 49.3459C47.9146 49.9116 47.7967 50.8781 47.7967 52.2453C47.7967 53.6361 47.9146 54.6262 48.1503 55.2155C48.4096 55.7812 48.8103 56.0641 49.3525 56.0641Z" fill="#BEDCE6"/>
</g>
<defs>
<clipPath id="clip0">
<rect width="80" height="80" fill="white"/>
</clipPath>
</defs>
</svg>
