<svg width="80" height="80" viewBox="0 0 80 80" fill="none" xmlns="http://www.w3.org/2000/svg">
<g clip-path="url(#clip0)">
<path d="M74.1673 80H45.834C44.454 80 43.334 78.88 43.334 77.5V32.5C43.334 31.7466 43.674 31.0333 44.2573 30.56C44.8407 30.0833 45.604 29.8966 46.344 30.0533L75.4006 36.14C78.1206 36.7433 80.0006 39.0833 80.0006 41.84V74.1666C80.0006 77.3833 77.384 80 74.1673 80Z" fill="#00B289"/>
<path d="M48.334 30.4702V80.0002H45.834H63.334V33.6135L48.334 30.4702Z" fill="#00B289"/>
<path d="M43.4333 6.23327L6.8 0.666601C5.1 0.399935 3.36667 0.866601 2.06667 1.9666C0.766667 3.09993 0 4.73327 0 6.43327V76.6666C0 78.4999 1.5 79.9999 3.33333 79.9999H14.1667V62.4999C14.1667 59.2666 16.7667 56.6666 20 56.6666H28.3333C31.5667 56.6666 34.1667 59.2666 34.1667 62.4999V79.9999H48.3333V11.9999C48.3333 9.13326 46.2667 6.69993 43.4333 6.23327Z" fill="#8D9A9F"/>
<path d="M34.166 62.5003V80.0003H14.166V62.5003C14.166 59.267 16.766 56.667 19.9993 56.667H28.3327C31.566 56.667 34.166 59.267 34.166 62.5003Z" fill="#BEDCE6"/>
<path d="M5.86 0.593262C4.47667 0.593262 3.12667 1.06993 2.06667 1.9666C0.766667 3.09993 0 4.73326 0 6.43326V76.6666C0 78.4999 1.5 79.9999 3.33333 79.9999H14.1667V62.4999C14.1667 59.2666 16.7667 56.6666 20 56.6666H24.1667V3.3066L6.8 0.666595C6.48667 0.616595 6.17333 0.593262 5.86 0.593262Z" fill="#4F4F4F"/>
<path d="M18.334 29.167H13.334C11.954 29.167 10.834 28.047 10.834 26.667C10.834 25.287 11.954 24.167 13.334 24.167H18.334C19.714 24.167 20.834 25.287 20.834 26.667C20.834 28.047 19.714 29.167 18.334 29.167Z" fill="#BEDCE6"/>
<path d="M35 29.167H30C28.62 29.167 27.5 28.047 27.5 26.667C27.5 25.287 28.62 24.167 30 24.167H35C36.38 24.167 37.5 25.287 37.5 26.667C37.5 28.047 36.38 29.167 35 29.167Z" fill="#BEDCE6"/>
<path d="M18.334 39.167H13.334C11.954 39.167 10.834 38.047 10.834 36.667C10.834 35.287 11.954 34.167 13.334 34.167H18.334C19.714 34.167 20.834 35.287 20.834 36.667C20.834 38.047 19.714 39.167 18.334 39.167Z" fill="#BEDCE6"/>
<path d="M35 39.167H30C28.62 39.167 27.5 38.047 27.5 36.667C27.5 35.287 28.62 34.167 30 34.167H35C36.38 34.167 37.5 35.287 37.5 36.667C37.5 38.047 36.38 39.167 35 39.167Z" fill="#BEDCE6"/>
<path d="M18.334 49.167H13.334C11.954 49.167 10.834 48.047 10.834 46.667C10.834 45.287 11.954 44.167 13.334 44.167H18.334C19.714 44.167 20.834 45.287 20.834 46.667C20.834 48.047 19.714 49.167 18.334 49.167Z" fill="#BEDCE6"/>
<path d="M35 49.167H30C28.62 49.167 27.5 48.047 27.5 46.667C27.5 45.287 28.62 44.167 30 44.167H35C36.38 44.167 37.5 45.287 37.5 46.667C37.5 48.047 36.38 49.167 35 49.167Z" fill="#BEDCE6"/>
<path d="M65.834 60H60.834C59.454 60 58.334 58.88 58.334 57.5C58.334 56.12 59.454 55 60.834 55H65.834C67.214 55 68.334 56.12 68.334 57.5C68.334 58.88 67.214 60 65.834 60Z" fill="#BEDCE6"/>
<path d="M65.834 70H60.834C59.454 70 58.334 68.88 58.334 67.5C58.334 66.12 59.454 65 60.834 65H65.834C67.214 65 68.334 66.12 68.334 67.5C68.334 68.88 67.214 70 65.834 70Z" fill="#BEDCE6"/>
<path d="M18.334 19.167H13.334C11.954 19.167 10.834 18.047 10.834 16.667C10.834 15.287 11.954 14.167 13.334 14.167H18.334C19.714 14.167 20.834 15.287 20.834 16.667C20.834 18.047 19.714 19.167 18.334 19.167Z" fill="#BEDCE6"/>
<path d="M35 19.167H30C28.62 19.167 27.5 18.047 27.5 16.667C27.5 15.287 28.62 14.167 30 14.167H35C36.38 14.167 37.5 15.287 37.5 16.667C37.5 18.047 36.38 19.167 35 19.167Z" fill="#BEDCE6"/>
<path d="M65.834 50H60.834C59.454 50 58.334 48.88 58.334 47.5C58.334 46.12 59.454 45 60.834 45H65.834C67.214 45 68.334 46.12 68.334 47.5C68.334 48.88 67.214 50 65.834 50Z" fill="#BEDCE6"/>
<path d="M56.8618 22.3147C56.6284 22.0782 56.5586 21.7225 56.6849 21.4135C56.8112 21.1045 57.1089 20.9031 57.439 20.9031H59.8743V14.9515H55.4686C54.6575 14.9515 54 14.2854 54 13.4637V10.4879C54 9.66618 54.6575 9 55.4686 9H59.8743C63.1185 9 65.7485 11.6646 65.7485 14.9515V20.9031H68.1838C68.5139 20.9031 68.8115 21.1045 68.9379 21.4135C69.0642 21.7225 68.9944 22.0782 68.761 22.3147L63.3885 27.7578C63.0698 28.0807 62.553 28.0807 62.2343 27.7578L56.8618 22.3147Z" fill="#00B289"/>
</g>
<defs>
<clipPath id="clip0">
<rect width="80" height="80" fill="white"/>
</clipPath>
</defs>
</svg>
