<svg width="24" height="24" viewBox="0 0 24 24" fill="none" xmlns="http://www.w3.org/2000/svg">
<path fill-rule="evenodd" clip-rule="evenodd" d="M4 0C1.79086 0 0 1.79086 0 4V20C0 22.2091 1.79086 24 4 24H20C22.2091 24 24 22.2091 24 20V4C24 1.79086 22.2091 0 20 0H4ZM17.837 8.44328C18.4703 8.36978 19.0744 8.20854 19.6364 7.96706C19.2162 8.57377 18.6847 9.10699 18.0726 9.53446C18.0784 9.66495 18.082 9.79469 18.082 9.92669C18.082 13.9292 14.9305 18.5459 9.1669 18.5459C7.39739 18.5459 5.75002 18.0434 4.36364 17.1847C4.60863 17.2125 4.85799 17.2267 5.11099 17.2267C6.57952 17.2267 7.93028 16.743 9.0026 15.9308C7.63148 15.9061 6.4741 15.0294 6.07571 13.8272C6.26691 13.8617 6.4632 13.8797 6.66531 13.8797C6.95029 13.8797 7.228 13.8437 7.49045 13.7747C6.05681 13.4965 4.97722 12.2725 4.97722 10.8049V10.7659C5.40033 10.9931 5.88306 11.1289 6.39632 11.1454C5.55591 10.6024 5.00267 9.67395 5.00267 8.62402C5.00267 8.0683 5.15679 7.54859 5.4265 7.10086C6.9721 8.933 9.28104 10.1389 11.8851 10.2657C11.8313 10.0444 11.8037 9.81269 11.8037 9.57496C11.8037 7.90256 13.2075 6.5459 14.9378 6.5459C15.8385 6.5459 16.6535 6.91338 17.2242 7.50284C17.9381 7.36635 18.6084 7.11436 19.2147 6.76788C18.9806 7.47434 18.4841 8.0683 17.837 8.44328Z" fill="#56CCF2"/>
</svg>
