<svg width="147" height="40" viewBox="0 0 147 40" fill="none" xmlns="http://www.w3.org/2000/svg">
<path d="M34 16.5C34 25.6127 26.6127 33 17.5 33C8.3873 33 1 25.6127 1 16.5C1 7.3873 8.3873 0 17.5 0C20.427 0 23.176 0.762156 25.5594 2.09884V1.21406C25.5594 0.543553 26.103 0 26.7735 0H30.1176C30.7881 0 31.3317 0.543553 31.3317 1.21406V7.62376C32.0725 8.59816 31.7839 8.18843 32.1485 8.89845C33.3315 11.1734 34 13.7586 34 16.5Z" fill="#00B289"/>
<path d="M35 17.3642C35 7.77435 27.165 0.000225067 17.5 0.000225067C7.83502 0.000225067 0 7.77435 0 17.3642C0 26.3748 8.26028 33.0741 16.0134 39.5075C16.8552 40.206 18.0953 40.1526 18.892 39.4038C25.8423 32.8716 35 26.3399 35 17.3642Z" fill="#00B289"/>
<path d="M9 9.74266C9 9.3325 9.33148 9 9.74037 9H14.3311C14.74 9 15.0714 9.3325 15.0714 9.74266V19.972C15.0714 20.7471 15.2646 21.3838 15.651 21.8821C16.0557 22.3619 16.6721 22.6018 17.5 22.6018C18.3279 22.6018 18.9351 22.3619 19.3214 21.8821C19.7262 21.3838 19.9286 20.7471 19.9286 19.972V9.74267C19.9286 9.3325 20.26 9 20.6689 9H25.2596C25.6685 9 26 9.3325 26 9.74266V20.5256C26 21.9098 25.77 23.0817 25.3101 24.0413C24.8685 24.9826 24.2522 25.7485 23.461 26.339C22.6699 26.9111 21.7592 27.3264 20.7289 27.5848C19.717 27.8616 18.6407 28 17.5 28C16.3593 28 15.2738 27.8616 14.2435 27.5848C13.2316 27.3264 12.3301 26.9111 11.539 26.339C10.7478 25.7485 10.1223 24.9826 9.66234 24.0413C9.22078 23.0817 9 21.9098 9 20.5256V9.74266Z" fill="white"/>
<path d="M54.3531 32C51.1092 32 48.5669 31.2282 46.7263 29.6846C44.9088 28.1409 44 25.8143 44 22.7047V9.01342C44 8.76734 44.0805 8.56599 44.2416 8.4094C44.4256 8.2528 44.6327 8.1745 44.8628 8.1745H49.3146C49.5677 8.1745 49.7748 8.2528 49.9358 8.4094C50.1199 8.56599 50.2119 8.76734 50.2119 9.01342V22.6711C50.2119 24.1253 50.557 25.2215 51.2472 25.9597C51.9604 26.6756 52.9842 27.0336 54.3186 27.0336C55.63 27.0336 56.6423 26.6644 57.3556 25.9262C58.0688 25.1879 58.4254 24.1029 58.4254 22.6711V9.01342C58.4254 8.76734 58.5059 8.56599 58.667 8.4094C58.851 8.2528 59.0581 8.1745 59.2881 8.1745H63.7745C64.0276 8.1745 64.2346 8.2528 64.3957 8.4094C64.5567 8.56599 64.6373 8.76734 64.6373 9.01342V22.7047C64.6373 25.8143 63.717 28.1409 61.8764 29.6846C60.0589 31.2282 57.5511 32 54.3531 32Z" fill="#333333"/>
<path d="M70.2145 31.6644C69.9614 31.6644 69.7543 31.5861 69.5933 31.4295C69.4322 31.2729 69.3517 31.0716 69.3517 30.8255V15.0537C69.3517 14.8076 69.4322 14.6063 69.5933 14.4497C69.7543 14.2931 69.9614 14.2148 70.2145 14.2148H74.1832C74.4363 14.2148 74.6433 14.2931 74.8044 14.4497C74.9884 14.6063 75.0805 14.8076 75.0805 15.0537V16.3289C75.7016 15.5906 76.4954 14.9978 77.4617 14.5503C78.451 14.1029 79.5668 13.8792 80.8092 13.8792C82.8338 13.8792 84.4788 14.5503 85.7442 15.8926C87.0096 17.2125 87.6423 19.0694 87.6423 21.4631V30.8255C87.6423 31.0492 87.5617 31.2506 87.4007 31.4295C87.2396 31.5861 87.0326 31.6644 86.7795 31.6644H82.4312C82.2011 31.6644 81.994 31.5861 81.81 31.4295C81.6489 31.2506 81.5684 31.0492 81.5684 30.8255V21.6644C81.5684 20.613 81.3038 19.8076 80.7747 19.2483C80.2455 18.6667 79.4863 18.3758 78.497 18.3758C77.5307 18.3758 76.7715 18.6667 76.2193 19.2483C75.6671 19.8076 75.391 20.613 75.391 21.6644V30.8255C75.391 31.0492 75.3105 31.2506 75.1495 31.4295C74.9884 31.5861 74.7814 31.6644 74.5283 31.6644H70.2145Z" fill="#333333"/>
<path d="M92.8733 11.698C92.6202 11.698 92.4132 11.6197 92.2521 11.4631C92.0911 11.3065 92.0105 11.1051 92.0105 10.8591V7.83893C92.0105 7.59284 92.0911 7.3915 92.2521 7.2349C92.4132 7.0783 92.6202 7 92.8733 7H97.0146C97.2676 7 97.4747 7.0783 97.6357 7.2349C97.7968 7.3915 97.8773 7.59284 97.8773 7.83893V10.8591C97.8773 11.1051 97.7968 11.3065 97.6357 11.4631C97.4747 11.6197 97.2676 11.698 97.0146 11.698H92.8733ZM92.9078 31.6644C92.6547 31.6644 92.4477 31.5861 92.2866 31.4295C92.1256 31.2729 92.045 31.0716 92.045 30.8255V15.0537C92.045 14.8076 92.1256 14.6063 92.2866 14.4497C92.4477 14.2931 92.6547 14.2148 92.9078 14.2148H96.98C97.2331 14.2148 97.4402 14.2931 97.6012 14.4497C97.7623 14.6063 97.8428 14.8076 97.8428 15.0537V30.8255C97.8428 31.0492 97.7623 31.2506 97.6012 31.4295C97.4402 31.5861 97.2331 31.6644 96.98 31.6644H92.9078Z" fill="#333333"/>
<path d="M103.127 31.6644C102.897 31.6644 102.69 31.5861 102.506 31.4295C102.345 31.2506 102.265 31.0492 102.265 30.8255V26.5638C102.265 26.3177 102.345 26.1163 102.506 25.9597C102.69 25.8031 102.897 25.7248 103.127 25.7248H107.51C107.763 25.7248 107.97 25.8031 108.132 25.9597C108.293 26.1163 108.373 26.3177 108.373 26.5638V30.8255C108.373 31.0492 108.293 31.2506 108.132 31.4295C107.97 31.5861 107.763 31.6644 107.51 31.6644H103.127Z" fill="#333333"/>
<path d="M113.625 31.6644C113.372 31.6644 113.165 31.5861 113.004 31.4295C112.843 31.2729 112.762 31.0716 112.762 30.8255V15.0537C112.762 14.8076 112.843 14.6063 113.004 14.4497C113.165 14.2931 113.372 14.2148 113.625 14.2148H117.594C117.847 14.2148 118.054 14.3042 118.215 14.4832C118.399 14.6398 118.491 14.83 118.491 15.0537V16.396C119.756 14.9418 121.459 14.2148 123.598 14.2148H125.117C125.37 14.2148 125.577 14.2931 125.738 14.4497C125.899 14.6063 125.98 14.8076 125.98 15.0537V18.5101C125.98 18.7338 125.899 18.9351 125.738 19.1141C125.577 19.2707 125.37 19.349 125.117 19.349H121.769C120.826 19.349 120.09 19.6063 119.561 20.1208C119.055 20.613 118.801 21.3177 118.801 22.2349V30.8255C118.801 31.0716 118.709 31.2729 118.525 31.4295C118.364 31.5861 118.157 31.6644 117.904 31.6644H113.625Z" fill="#333333"/>
<path d="M135.543 32C133.518 32 131.884 31.34 130.642 30.0201C129.4 28.6779 128.778 26.8098 128.778 24.4161V15.0537C128.778 14.8076 128.859 14.6063 129.02 14.4497C129.181 14.2931 129.388 14.2148 129.641 14.2148H133.955C134.208 14.2148 134.415 14.2931 134.576 14.4497C134.76 14.6063 134.852 14.8076 134.852 15.0537V24.2148C134.852 26.4072 135.853 27.5034 137.855 27.5034C138.821 27.5034 139.58 27.2125 140.132 26.6309C140.685 26.0492 140.961 25.2438 140.961 24.2148V15.0537C140.961 14.8076 141.041 14.6063 141.202 14.4497C141.386 14.2931 141.593 14.2148 141.823 14.2148H146.137C146.39 14.2148 146.597 14.2931 146.758 14.4497C146.919 14.6063 147 14.8076 147 15.0537V30.8255C147 31.0492 146.919 31.2506 146.758 31.4295C146.597 31.5861 146.39 31.6644 146.137 31.6644H142.134C141.904 31.6644 141.697 31.5861 141.513 31.4295C141.352 31.2506 141.271 31.0492 141.271 30.8255V29.5503C140.075 31.1834 138.165 32 135.543 32Z" fill="#333333"/>
</svg>
